<svg xmlns="http://www.w3.org/2000/svg" width="24" height="24" viewBox="0 0 24 24"><path d="M 5.913 5.409 C 5.913 5.378 5.913 5.348 5.914 5.318 C 5.914 5.318 5.959 4.156 5.959 4.161 C 5.96 3.98 5.966 3.799 5.976 3.618 C 6.018 2.969 6.226 2.033 6.654 1.367 C 7.181 0.551 7.963 0.03 9.005 0.001 C 9.081 -0.001 9.157 0 9.233 0.003 C 10.679 0.073 11.751 1.204 12.06 2.485 C 12.083 2.582 12.104 2.68 12.121 2.779 C 12.142 2.891 12.158 3.004 12.172 3.117 C 12.188 3.247 12.201 3.377 12.21 3.508 C 12.223 3.7 12.229 3.73 12.233 4.142 C 12.234 4.147 12.234 4.152 12.234 4.158 C 12.237 4.947 12.237 5.736 12.236 6.525 C 12.797 6.724 13.307 7.058 13.691 7.514 C 13.839 7.532 13.986 7.561 14.13 7.601 C 14.763 7.778 15.507 8.281 16.015 8.877 C 17.377 9.264 18.387 10.508 18.742 11.9 C 19.518 14.948 18.506 18.38 16.215 20.462 L 16.113 21.532 C 16.044 22.267 15.594 22.91 14.932 23.218 C 12.608 24.303 9.81 24.264 7.541 23.067 C 6.918 22.739 6.505 22.11 6.446 21.4 L 6.245 18.967 C 5.549 17.518 4.852 16.067 4.351 14.541 C 3.896 13.153 3.927 12.042 4.195 11.128 C 4.493 10.11 5.111 9.294 5.93 8.621 Z M 9.061 2.075 C 8.28 2.097 8.057 3.156 8.019 3.752 C 8.011 3.904 8.006 4.056 8.005 4.208 L 7.96 5.398 L 7.983 9.7 C 7.952 9.717 7.922 9.735 7.892 9.754 C 6.551 10.588 5.57 11.68 6.294 13.886 C 6.806 15.448 7.542 16.925 8.252 18.408 L 8.486 21.227 C 10.202 22.132 12.318 22.154 14.076 21.334 L 14.261 19.383 C 16.417 17.903 17.412 14.978 16.76 12.419 C 16.52 11.478 15.718 10.561 14.627 10.909 C 14.871 10.411 14.123 9.752 13.586 9.602 C 13.193 9.492 12.751 9.615 12.445 9.891 C 12.445 9.891 12.457 9.314 12.19 8.932 C 11.759 8.317 10.806 8.166 10.191 8.62 L 10.187 8.624 C 10.187 7.138 10.192 5.652 10.187 4.166 C 10.183 3.835 10.179 3.81 10.168 3.656 C 10.161 3.562 10.152 3.468 10.141 3.374 C 10.132 3.3 10.121 3.225 10.108 3.152 C 10.097 3.093 10.085 3.035 10.071 2.977 C 9.965 2.535 9.635 2.1 9.136 2.075 C 9.111 2.075 9.086 2.075 9.061 2.075 Z" fill="currentColor"></path></svg>