<?xml version="1.0" encoding="utf-8"?>
<!-- Generator: Adobe Illustrator 25.4.1, SVG Export Plug-In . SVG Version: 6.00 Build 0)  -->
<svg version="1.1" id="Layer_1" xmlns="http://www.w3.org/2000/svg" xmlns:xlink="http://www.w3.org/1999/xlink" x="0px" y="0px"
	 viewBox="0 0 24 24" style="enable-background:new 0 0 24 24;" xml:space="preserve">
<style type="text/css">
	.st0{fill:none;stroke:#888888;stroke-width:2;stroke-linecap:round;stroke-linejoin:round;}
	.st1{fill:none;stroke:#4675E8;stroke-width:1.5;stroke-linecap:round;stroke-linejoin:round;}
	.st2{fill:#4675E8;}
</style>
<path class="st0" d="M22,19c0,1.1-0.9,2-2,2H4c-1.1,0-2-0.9-2-2V5c0-1.1,0.9-2,2-2h5l2,3h9c1.1,0,2,0.9,2,2V19z"/>
<path class="st1" d="M9,14.5c0,0,1.1,1.5,3,1.5s3-1.5,3-1.5"/>
<path class="st2" d="M9.8,11.8C9.4,11.8,9,11.4,9,11s0.3-0.8,0.7-0.8h0.1c0.4,0,0.8,0.3,0.8,0.8S10.2,11.8,9.8,11.8z"/>
<path class="st2" d="M14.3,11.8c-0.2,0-0.4-0.1-0.5-0.2c-0.1-0.1-0.2-0.3-0.2-0.5c0-0.2,0.1-0.4,0.2-0.5c0.2-0.2,0.5-0.3,0.8-0.2
	c0.1,0,0.2,0.1,0.2,0.2C15,10.6,15,10.8,15,11c0,0.2-0.1,0.4-0.2,0.5c-0.1,0.1-0.2,0.1-0.2,0.2S14.4,11.8,14.3,11.8z"/>
</svg>
