<?xml version="1.0" encoding="utf-8"?>
<!-- Generator: Adobe Illustrator 25.4.1, SVG Export Plug-In . SVG Version: 6.00 Build 0)  -->
<svg version="1.1" id="Layer_1" xmlns="http://www.w3.org/2000/svg" xmlns:xlink="http://www.w3.org/1999/xlink" x="0px" y="0px"
	 viewBox="0 0 24 24" style="enable-background:new 0 0 24 24;" xml:space="preserve">
<style type="text/css">
	.st0{fill:none;}
	.st1{fill:currentColor;}
	.st2{clip-path:url(#SVGID_00000175325064373341417970000002567525331399211441_);}
</style>
<rect x="-1.2" y="3.9" class="st0" width="26.7" height="20"/>
<g id="Rectangle-6-Copy-2" transform="matrix(0.835358,0,0,1.02509,7.99341,2.54491)">
	<path class="st1" d="M14.8,18.9H14c-1.8,0-3.2-1.2-3.2-2.6V5.8c0-1.4,1.4-2.6,3.2-2.6h0.8c1.8,0,3.2,1.2,3.2,2.6v10.5
		C18,17.7,16.6,18.9,14.8,18.9z M14,5.2c-0.5,0-0.8,0.3-0.8,0.6v10.5c0,0.3,0.4,0.6,0.8,0.6h0.8c0.5,0,0.8-0.3,0.8-0.6V5.8
		c0-0.4-0.4-0.6-0.8-0.6H14z"/>
	<g>
		<g>
			<defs>
				<path id="SVGID_1_" d="M16.8,5.8c0-0.9-0.9-1.6-2-1.6H14c-1.1,0-2,0.7-2,1.6v10.5c0,0.9,0.9,1.6,2,1.6h0.8c1.1,0,2-0.7,2-1.6
					V5.8z"/>
			</defs>
			<clipPath id="SVGID_00000051349820308906188000000012829914661135770775_">
				<use xlink:href="#SVGID_1_"  style="overflow:visible;"/>
			</clipPath>
			<g style="clip-path:url(#SVGID_00000051349820308906188000000012829914661135770775_);">
				<g id="programs">
				</g>
			</g>
		</g>
		<g>
			<path class="st1" d="M14.8,18.9H14c-1.8,0-3.2-1.2-3.2-2.6V5.8c0-1.4,1.4-2.6,3.2-2.6h0.8c1.8,0,3.2,1.2,3.2,2.6v10.5
				C18,17.7,16.6,18.9,14.8,18.9z M14,5.2c-0.5,0-0.8,0.3-0.8,0.6v10.5c0,0.3,0.4,0.6,0.8,0.6h0.8c0.5,0,0.8-0.3,0.8-0.6V5.8
				c0-0.4-0.4-0.6-0.8-0.6H14z"/>
		</g>
	</g>
	<path class="st1" d="M14.8,18.9H14c-1.8,0-3.2-1.2-3.2-2.6V5.8c0-1.4,1.4-2.6,3.2-2.6h0.8c1.8,0,3.2,1.2,3.2,2.6v10.5
		C18,17.7,16.6,18.9,14.8,18.9z M14,5.2c-0.5,0-0.8,0.3-0.8,0.6v10.5c0,0.3,0.4,0.6,0.8,0.6h0.8c0.5,0,0.8-0.3,0.8-0.6V5.8
		c0-0.4-0.4-0.6-0.8-0.6H14z"/>
</g>
<g id="Rectangle-6-Copy-21" transform="matrix(0.848205,0,0,0.769044,-1.77553,7.02565)">
	<path class="st1" d="M16.8,19.4H16c-1.8,0-3.2-1.6-3.2-3.5V6.5C12.8,4.6,14.2,3,16,3h0.8C18.6,3,20,4.6,20,6.5v9.4
		C20,17.8,18.6,19.4,16.8,19.4z M16,5.6c-0.4,0-0.8,0.4-0.8,0.9v9.4c0,0.5,0.4,0.9,0.8,0.9h0.8c0.4,0,0.8-0.4,0.8-0.9V6.5
		c0-0.5-0.4-0.9-0.8-0.9H16z"/>
</g>
<g id="Rectangle-6-Copy-22" transform="matrix(0.848205,0,0,0.507401,-11.2983,11.6044)">
	<path class="st1" d="M18.7,20.4h-0.8c-1.8,0-3.2-2.4-3.2-5.3V7.9c0-2.9,1.4-5.3,3.2-5.3h0.8c1.8,0,3.2,2.4,3.2,5.3v7.2
		C21.9,18,20.5,20.4,18.7,20.4z M17.9,6.6c-0.4,0-0.8,0.6-0.8,1.3v7.2c0,0.7,0.4,1.3,0.8,1.3h0.8c0.4,0,0.8-0.6,0.8-1.3V7.9
		c0-0.7-0.4-1.3-0.8-1.3H17.9z"/>
</g>
</svg>
