<svg xmlns="http://www.w3.org/2000/svg" width="24" height="24" viewBox="0 0 24 24"><path d="M 20.5 20.2 C 19.4 21.3 18.1 22.1 16.6 22.7 C 15.2 23.2 13.6 23.5 12.1 23.4 C 10.5 23.4 9 23 7.6 22.4 C 6.1 21.8 4.8 20.9 3.7 19.8 C 2.2 18.3 1.2 16.6 0.6 14.5 C 0 12.5 0 10.5 0.4 8.5 C 0.8 6.5 1.7 4.6 3.1 3.1 L 3 3.1 C 3.3 2.7 3.6 2.5 3.7 2.4 C 4.2 2.1 4.7 2 5.2 2 C 5.7 2.1 6.2 2.3 6.5 2.6 C 6.9 3 7.1 3.5 7.2 4 C 7.3 4.5 7.2 5 7 5.4 C 6.8 5.6 6.7 5.7 6.6 5.9 C 5.5 7.1 4.7 8.4 4.3 10 C 3.9 11.5 3.9 13 4.2 14.4 C 4.6 15.9 5.3 17.2 6.4 18.3 C 7.6 19.5 9 20.2 10.7 20.6 C 12.3 20.9 13.8 20.8 15.4 20.2 C 17 19.6 18.3 18.8 19.4 17.5 C 20.2 16.5 20.9 15.4 21.4 14.2 C 21.9 13 22.1 11.7 22.1 10.5 C 22.1 9.2 21.8 7.9 21.3 6.7 C 20.6 5.1 19.7 3.9 18.3 2.8 C 17 1.8 15.6 1.2 13.9 0.9 C 12.2 0.6 10.6 0.8 9 1.3 C 10.9 0.6 12.8 0.5 14.7 0.8 C 16.6 1.1 18.2 1.8 19.7 2.9 C 21.2 4.1 22.4 5.5 23.1 7.3 C 23.7 8.6 24 10 24 11.4 C 24 12.8 23.8 14.2 23.4 15.5 C 23 16.8 22.3 18 21.4 19.1 C 21.1 19.5 20.8 19.8 20.5 20.2 Z" fill="currentColor"></path></svg>