<svg xmlns="http://www.w3.org/2000/svg" width="24" height="24"><path d="M 10 11.923 L 21 11.923 M 10 3.923 L 21 3.923 M 10 19.923 L 21 19.923" fill="transparent" stroke-width="2" stroke="currentColor" stroke-linecap="round" stroke-linejoin="round" stroke-dasharray=""></path><path d="M 4 2 C 5.105 2 6 2.895 6 4 C 6 5.105 5.105 6 4 6 C 2.895 6 2 5.105 2 4 C 2 2.895 2.895 2 4 2 Z" fill="transparent" stroke-width="2" stroke="currentColor"></path><path d="M 4 10 C 5.105 10 6 10.895 6 12 C 6 13.105 5.105 14 4 14 C 2.895 14 2 13.105 2 12 C 2 10.895 2.895 10 4 10 Z" fill="currentColor" stroke-width="2" stroke="currentColor"></path><path d="M 4 18 C 5.105 18 6 18.895 6 20 C 6 21.105 5.105 22 4 22 C 2.895 22 2 21.105 2 20 C 2 18.895 2.895 18 4 18 Z" fill="transparent" stroke-width="2" stroke="currentColor"></path></svg>