<?xml version="1.0" encoding="utf-8"?>
<!-- Generator: Adobe Illustrator 25.4.1, SVG Export Plug-In . SVG Version: 6.00 Build 0)  -->
<svg version="1.1" id="Layer_1" xmlns="http://www.w3.org/2000/svg" xmlns:xlink="http://www.w3.org/1999/xlink" x="0px" y="0px"
	 viewBox="0 0 24 24" style="enable-background:new 0 0 24 24;" xml:space="preserve">
<style type="text/css">
	.st0{fill:none;stroke:#888888;stroke-width:2;stroke-linecap:round;stroke-linejoin:round;}
	.st1{fill:none;stroke:#4675E8;stroke-width:1.5;stroke-linecap:round;stroke-linejoin:round;}
	.st2{fill:#4675E8;}
</style>
<g>
	<path class="st0" d="M21,13.8L13.8,21c-0.8,0.8-2,0.8-2.8,0l0,0l-8.6-8.6v-10h10L21,11C21.8,11.8,21.8,13,21,13.8z"/>
</g>
<path class="st1" d="M8,12.3c0,0,1.1,1.5,3,1.5s3-1.5,3-1.5"/>
<path class="st2" d="M8.8,9.5C8.4,9.5,8,9.2,8,8.8S8.3,8,8.7,8h0.1c0.4,0,0.8,0.3,0.8,0.8S9.2,9.5,8.8,9.5z"/>
<path class="st2" d="M13.3,9.5c-0.2,0-0.4-0.1-0.5-0.2c-0.1-0.1-0.2-0.3-0.2-0.5s0.1-0.4,0.2-0.5C13,8.1,13.3,8,13.6,8.1
	c0.1,0,0.2,0.1,0.2,0.2C14,8.4,14,8.6,14,8.8S14,9.2,13.8,9.3c-0.1,0.1-0.2,0.1-0.2,0.2C13.5,9.5,13.4,9.5,13.3,9.5z"/>
</svg>
