<svg xmlns="http://www.w3.org/2000/svg" width="24" height="24" viewBox="0 0 24 24"><path d="M 19.992 8.244 C 19.923 9.821 18.835 11.978 16.729 14.716 C 14.554 17.569 12.713 18.996 11.208 18.996 C 10.272 18.996 9.483 18.125 8.841 16.383 C 8.411 14.787 7.98 13.191 7.55 11.594 C 7.07 9.853 6.556 8.983 6.008 8.983 C 5.89 8.983 5.471 9.236 4.752 9.744 L 4 8.764 C 4.79 8.062 5.568 7.36 6.334 6.658 C 7.389 5.737 8.18 5.252 8.705 5.202 C 9.951 5.083 10.718 5.943 11.005 7.784 C 11.317 9.773 11.532 11.009 11.651 11.49 C 12.009 13.141 12.405 13.966 12.836 13.965 C 13.172 13.965 13.675 13.429 14.347 12.358 C 15.018 11.287 15.377 10.476 15.424 9.924 C 15.517 9.002 15.158 8.54 14.347 8.539 C 13.938 8.545 13.534 8.635 13.161 8.804 C 13.944 6.196 15.446 4.927 17.668 4.999 C 19.312 5.049 20.087 6.131 19.992 8.244 Z" fill="currentColor"></path></svg>